<svg xmlns="http://www.w3.org/2000/svg" viewBox="0 0 123.71 27.4"><defs><style>.cls-1{fill:#007072;}</style></defs><g id="Capa_2" data-name="Capa 2"><g id="ESCRITORIO"><path class="cls-1" d="M16,27l-1.06-5.59H8.8L6.5,27H0L11,2.56h6.65L22.32,27ZM13.26,10.52,10.78,16.7h3.36Z"/><path class="cls-1" d="M26.35,12.28h-3L23.9,8H27L27.48,4l6.21-.54L33.11,8H38l-.84,4.28h-4.6l-1,8.36c-.22,1.61.47,2.12,1.5,2.12a6.12,6.12,0,0,0,2-.36l.07,4a11.76,11.76,0,0,1-4.6,1c-6,0-5.55-3.47-5.19-6.69Z"/><path class="cls-1" d="M43.78,27H37.57L39.88,8h6.2ZM40.86,0h6.21l-.73,6.07H40.13Z"/><path class="cls-1" d="M64.17,13.59c-.62,5.08-5.48,6.76-9.06,6.76a7.16,7.16,0,0,1-2.48-.44c.14,1.94,2.48,2.67,5,2.67a13.93,13.93,0,0,0,4.57-.73l.21,4.38a23.79,23.79,0,0,1-7.27,1.06c-6.28,0-8.29-4.2-7.74-9.17C48,13,51.28,8,58.36,8,62.09,8,64.61,9.79,64.17,13.59Zm-6.65-1.31c-2.59,0-4.27,1.82-4.82,4.27a4.63,4.63,0,0,0,1.57.22c2.16,0,4.68-.95,4.9-3.14C59.24,12.86,58.44,12.28,57.52,12.28Z"/><path class="cls-1" d="M67.62,9.79a26.9,26.9,0,0,1,9.75-2.15c3.8,0,7.27,1,6.58,6.72L82.41,27h-6.1L77.77,14.8c.26-2.09-.55-2.67-1.72-2.67a7,7,0,0,0-2.7.55L71.6,27H65.53Z"/><path class="cls-1" d="M102.4,26.12A26.29,26.29,0,0,1,94,27.33c-4.64,0-8.66-1.87-7.75-9.5.62-4.9,3.25-10.08,9.9-10.08a7.35,7.35,0,0,1,2.41.36l.81-6.72h6.1ZM98,12.39a6.37,6.37,0,0,0-1.6-.19c-2.2,0-3.55,2.52-3.95,5.67-.4,3.43.66,5,2.74,5a6.94,6.94,0,0,0,1.57-.21Z"/><path class="cls-1" d="M106.25,17.57c.88-7.27,4.35-9.86,9.86-9.86,5.74,0,8.33,2.52,7.42,9.82s-4.28,9.87-10,9.87C108,27.4,105.37,24.84,106.25,17.57Zm5.88,0c-.51,4.13.55,5.23,2.08,5.23s2.89-1.1,3.4-5.23c.55-4.42-.51-5.22-2-5.22S112.68,13.15,112.13,17.57Z"/></g></g></svg>